# MagicaVoxel @ Ephtracy

# group
g base2

# material
mtllib base2.mtl
usemtl palette

# normals
vn -1 0 0
vn 1 0 0
vn 0 0 1
vn 0 0 -1
vn 0 -1 0
vn 0 1 0

# texcoords
vt 0.220703 0.5

# verts
v -7 0 7
v -7 0 -7
v -7 16 7
v -7 16 -7
v -5 11 8
v -5 11 7
v -5 12 8
v -5 12 7
v -4 10 8
v -4 10 7
v -4 11 8
v -4 11 7
v -4 12 8
v -4 12 7
v -4 13 8
v -4 13 7
v -3 0 8
v -3 0 7
v -3 10 8
v -3 10 7
v -3 13 8
v -3 13 7
v -3 14 8
v -3 14 7
v -2 14 8
v -2 14 7
v -2 15 8
v -2 15 7
v -1 15 8
v -1 15 7
v -1 16 8
v -1 16 7
v 1 14 8
v 1 14 6
v 1 15 8
v 1 15 6
v 2 0 8
v 2 0 6
v 2 10 8
v 2 10 6
v 2 13 8
v 2 13 6
v 2 14 8
v 2 14 6
v 3 10 8
v 3 10 6
v 3 11 8
v 3 11 6
v 3 12 8
v 3 12 6
v 3 13 8
v 3 13 6
v 4 11 8
v 4 11 6
v 4 12 8
v 4 12 6
v 6 0 6
v 6 0 -6
v 6 16 6
v 6 16 -6
v -6 0 6
v -6 0 -6
v -6 16 6
v -6 16 -6
v -4 11 8
v -4 11 6
v -4 12 8
v -4 12 6
v -3 10 8
v -3 10 6
v -3 11 8
v -3 11 6
v -3 12 8
v -3 12 6
v -3 13 8
v -3 13 6
v -2 0 8
v -2 0 6
v -2 10 8
v -2 10 6
v -2 13 8
v -2 13 6
v -2 14 8
v -2 14 6
v -1 14 8
v -1 14 6
v -1 15 8
v -1 15 6
v 1 15 8
v 1 15 7
v 1 16 8
v 1 16 7
v 2 14 8
v 2 14 7
v 2 15 8
v 2 15 7
v 3 0 8
v 3 0 7
v 3 10 8
v 3 10 7
v 3 13 8
v 3 13 7
v 3 14 8
v 3 14 7
v 4 10 8
v 4 10 7
v 4 11 8
v 4 11 7
v 4 12 8
v 4 12 7
v 4 13 8
v 4 13 7
v 5 11 8
v 5 11 7
v 5 12 8
v 5 12 7
v 7 0 7
v 7 0 -7
v 7 16 7
v 7 16 -7
v -5 11 8
v -5 12 8
v -4 10 8
v -4 11 8
v -4 12 8
v -4 13 8
v -3 0 8
v -3 10 8
v -3 11 8
v -3 12 8
v -3 13 8
v -3 14 8
v -2 0 8
v -2 10 8
v -2 13 8
v -2 14 8
v -2 15 8
v -1 14 8
v -1 15 8
v -1 16 8
v 1 14 8
v 1 15 8
v 1 16 8
v 2 0 8
v 2 10 8
v 2 13 8
v 2 14 8
v 2 15 8
v 3 0 8
v 3 10 8
v 3 11 8
v 3 12 8
v 3 13 8
v 3 14 8
v 4 10 8
v 4 11 8
v 4 12 8
v 4 13 8
v 5 11 8
v 5 12 8
v -7 0 7
v -7 16 7
v -5 11 7
v -5 12 7
v -4 10 7
v -4 11 7
v -4 12 7
v -4 13 7
v -3 0 7
v -3 10 7
v -3 13 7
v -3 14 7
v -2 14 7
v -2 15 7
v -1 15 7
v -1 16 7
v 1 15 7
v 1 16 7
v 2 14 7
v 2 15 7
v 3 0 7
v 3 10 7
v 3 13 7
v 3 14 7
v 4 10 7
v 4 11 7
v 4 12 7
v 4 13 7
v 5 11 7
v 5 12 7
v 7 0 7
v 7 16 7
v -6 0 -6
v -6 16 -6
v 6 0 -6
v 6 16 -6
v -6 0 6
v -6 16 6
v -4 11 6
v -4 12 6
v -3 10 6
v -3 11 6
v -3 12 6
v -3 13 6
v -2 0 6
v -2 10 6
v -2 13 6
v -2 14 6
v -1 14 6
v -1 15 6
v 1 14 6
v 1 15 6
v 2 0 6
v 2 10 6
v 2 13 6
v 2 14 6
v 3 10 6
v 3 11 6
v 3 12 6
v 3 13 6
v 4 11 6
v 4 12 6
v 6 0 6
v 6 16 6
v -7 0 -7
v -7 16 -7
v 7 0 -7
v 7 16 -7
v -3 0 8
v -2 0 8
v 2 0 8
v 3 0 8
v -7 0 7
v -3 0 7
v 3 0 7
v 7 0 7
v -6 0 6
v -2 0 6
v 2 0 6
v 6 0 6
v -6 0 -6
v 6 0 -6
v -7 0 -7
v 7 0 -7
v -4 10 8
v -3 10 8
v 3 10 8
v 4 10 8
v -4 10 7
v -3 10 7
v 3 10 7
v 4 10 7
v -5 11 8
v -4 11 8
v 4 11 8
v 5 11 8
v -5 11 7
v -4 11 7
v 4 11 7
v 5 11 7
v -4 12 8
v -3 12 8
v 3 12 8
v 4 12 8
v -4 12 6
v -3 12 6
v 3 12 6
v 4 12 6
v -3 13 8
v -2 13 8
v 2 13 8
v 3 13 8
v -3 13 6
v -2 13 6
v 2 13 6
v 3 13 6
v -2 14 8
v -1 14 8
v 1 14 8
v 2 14 8
v -2 14 6
v -1 14 6
v 1 14 6
v 2 14 6
v -1 15 8
v 1 15 8
v -1 15 6
v 1 15 6
v -3 10 8
v -2 10 8
v 2 10 8
v 3 10 8
v -3 10 6
v -2 10 6
v 2 10 6
v 3 10 6
v -4 11 8
v -3 11 8
v 3 11 8
v 4 11 8
v -4 11 6
v -3 11 6
v 3 11 6
v 4 11 6
v -5 12 8
v -4 12 8
v 4 12 8
v 5 12 8
v -5 12 7
v -4 12 7
v 4 12 7
v 5 12 7
v -4 13 8
v -3 13 8
v 3 13 8
v 4 13 8
v -4 13 7
v -3 13 7
v 3 13 7
v 4 13 7
v -3 14 8
v -2 14 8
v 2 14 8
v 3 14 8
v -3 14 7
v -2 14 7
v 2 14 7
v 3 14 7
v -2 15 8
v -1 15 8
v 1 15 8
v 2 15 8
v -2 15 7
v -1 15 7
v 1 15 7
v 2 15 7
v -1 16 8
v 1 16 8
v -7 16 7
v -1 16 7
v 1 16 7
v 7 16 7
v -6 16 6
v 6 16 6
v -6 16 -6
v 6 16 -6
v -7 16 -7
v 7 16 -7

# faces
f 3/1/1 2/1/1 1/1/1
f 4/1/1 2/1/1 3/1/1
f 7/1/1 6/1/1 5/1/1
f 8/1/1 6/1/1 7/1/1
f 11/1/1 10/1/1 9/1/1
f 12/1/1 10/1/1 11/1/1
f 15/1/1 14/1/1 13/1/1
f 16/1/1 14/1/1 15/1/1
f 19/1/1 18/1/1 17/1/1
f 20/1/1 18/1/1 19/1/1
f 23/1/1 22/1/1 21/1/1
f 24/1/1 22/1/1 23/1/1
f 27/1/1 26/1/1 25/1/1
f 28/1/1 26/1/1 27/1/1
f 31/1/1 30/1/1 29/1/1
f 32/1/1 30/1/1 31/1/1
f 35/1/1 34/1/1 33/1/1
f 36/1/1 34/1/1 35/1/1
f 39/1/1 38/1/1 37/1/1
f 40/1/1 38/1/1 39/1/1
f 43/1/1 42/1/1 41/1/1
f 44/1/1 42/1/1 43/1/1
f 47/1/1 46/1/1 45/1/1
f 48/1/1 46/1/1 47/1/1
f 51/1/1 50/1/1 49/1/1
f 52/1/1 50/1/1 51/1/1
f 55/1/1 54/1/1 53/1/1
f 56/1/1 54/1/1 55/1/1
f 59/1/1 58/1/1 57/1/1
f 60/1/1 58/1/1 59/1/1
f 61/1/2 62/1/2 63/1/2
f 63/1/2 62/1/2 64/1/2
f 65/1/2 66/1/2 67/1/2
f 67/1/2 66/1/2 68/1/2
f 69/1/2 70/1/2 71/1/2
f 71/1/2 70/1/2 72/1/2
f 73/1/2 74/1/2 75/1/2
f 75/1/2 74/1/2 76/1/2
f 77/1/2 78/1/2 79/1/2
f 79/1/2 78/1/2 80/1/2
f 81/1/2 82/1/2 83/1/2
f 83/1/2 82/1/2 84/1/2
f 85/1/2 86/1/2 87/1/2
f 87/1/2 86/1/2 88/1/2
f 89/1/2 90/1/2 91/1/2
f 91/1/2 90/1/2 92/1/2
f 93/1/2 94/1/2 95/1/2
f 95/1/2 94/1/2 96/1/2
f 97/1/2 98/1/2 99/1/2
f 99/1/2 98/1/2 100/1/2
f 101/1/2 102/1/2 103/1/2
f 103/1/2 102/1/2 104/1/2
f 105/1/2 106/1/2 107/1/2
f 107/1/2 106/1/2 108/1/2
f 109/1/2 110/1/2 111/1/2
f 111/1/2 110/1/2 112/1/2
f 113/1/2 114/1/2 115/1/2
f 115/1/2 114/1/2 116/1/2
f 117/1/2 118/1/2 119/1/2
f 119/1/2 118/1/2 120/1/2
f 124/1/3 122/1/3 121/1/3
f 125/1/3 122/1/3 124/1/3
f 128/1/3 124/1/3 123/1/3
f 129/1/3 124/1/3 128/1/3
f 130/1/3 126/1/3 125/1/3
f 131/1/3 126/1/3 130/1/3
f 133/1/3 128/1/3 127/1/3
f 134/1/3 128/1/3 133/1/3
f 135/1/3 132/1/3 131/1/3
f 136/1/3 132/1/3 135/1/3
f 138/1/3 137/1/3 136/1/3
f 139/1/3 137/1/3 138/1/3
f 142/1/3 140/1/3 139/1/3
f 143/1/3 140/1/3 142/1/3
f 147/1/3 142/1/3 141/1/3
f 148/1/3 142/1/3 147/1/3
f 149/1/3 145/1/3 144/1/3
f 150/1/3 145/1/3 149/1/3
f 153/1/3 147/1/3 146/1/3
f 154/1/3 147/1/3 153/1/3
f 155/1/3 151/1/3 150/1/3
f 156/1/3 151/1/3 155/1/3
f 157/1/3 153/1/3 152/1/3
f 158/1/3 153/1/3 157/1/3
f 159/1/3 157/1/3 156/1/3
f 160/1/3 157/1/3 159/1/3
f 163/1/3 162/1/3 161/1/3
f 164/1/3 162/1/3 163/1/3
f 165/1/3 163/1/3 161/1/3
f 166/1/3 163/1/3 165/1/3
f 167/1/3 162/1/3 164/1/3
f 168/1/3 162/1/3 167/1/3
f 169/1/3 165/1/3 161/1/3
f 170/1/3 165/1/3 169/1/3
f 171/1/3 162/1/3 168/1/3
f 172/1/3 162/1/3 171/1/3
f 173/1/3 162/1/3 172/1/3
f 174/1/3 162/1/3 173/1/3
f 175/1/3 162/1/3 174/1/3
f 176/1/3 162/1/3 175/1/3
f 180/1/3 178/1/3 177/1/3
f 184/1/3 180/1/3 179/1/3
f 185/1/3 182/1/3 181/1/3
f 188/1/3 184/1/3 183/1/3
f 189/1/3 186/1/3 185/1/3
f 190/1/3 188/1/3 187/1/3
f 191/1/3 189/1/3 185/1/3
f 191/1/3 190/1/3 189/1/3
f 191/1/3 185/1/3 181/1/3
f 192/1/3 178/1/3 180/1/3
f 192/1/3 190/1/3 191/1/3
f 192/1/3 188/1/3 190/1/3
f 192/1/3 184/1/3 188/1/3
f 192/1/3 180/1/3 184/1/3
f 195/1/3 194/1/3 193/1/3
f 196/1/3 194/1/3 195/1/3
f 197/1/4 198/1/4 199/1/4
f 199/1/4 198/1/4 200/1/4
f 197/1/4 199/1/4 201/1/4
f 201/1/4 199/1/4 202/1/4
f 200/1/4 198/1/4 203/1/4
f 203/1/4 198/1/4 204/1/4
f 197/1/4 201/1/4 205/1/4
f 205/1/4 201/1/4 206/1/4
f 204/1/4 198/1/4 207/1/4
f 207/1/4 198/1/4 208/1/4
f 208/1/4 198/1/4 209/1/4
f 209/1/4 198/1/4 210/1/4
f 210/1/4 198/1/4 212/1/4
f 211/1/4 212/1/4 216/1/4
f 213/1/4 214/1/4 217/1/4
f 215/1/4 216/1/4 220/1/4
f 217/1/4 218/1/4 221/1/4
f 219/1/4 220/1/4 222/1/4
f 217/1/4 221/1/4 223/1/4
f 221/1/4 222/1/4 223/1/4
f 213/1/4 217/1/4 223/1/4
f 212/1/4 198/1/4 224/1/4
f 223/1/4 222/1/4 224/1/4
f 222/1/4 220/1/4 224/1/4
f 220/1/4 216/1/4 224/1/4
f 216/1/4 212/1/4 224/1/4
f 225/1/4 226/1/4 227/1/4
f 227/1/4 226/1/4 228/1/4
f 234/1/5 230/1/5 229/1/5
f 235/1/5 232/1/5 231/1/5
f 237/1/5 234/1/5 233/1/5
f 238/1/5 230/1/5 234/1/5
f 238/1/5 234/1/5 237/1/5
f 239/1/5 236/1/5 235/1/5
f 239/1/5 235/1/5 231/1/5
f 240/1/5 236/1/5 239/1/5
f 241/1/5 237/1/5 233/1/5
f 242/1/5 236/1/5 240/1/5
f 243/1/5 241/1/5 233/1/5
f 243/1/5 242/1/5 241/1/5
f 244/1/5 236/1/5 242/1/5
f 244/1/5 242/1/5 243/1/5
f 249/1/5 246/1/5 245/1/5
f 250/1/5 246/1/5 249/1/5
f 251/1/5 248/1/5 247/1/5
f 252/1/5 248/1/5 251/1/5
f 257/1/5 254/1/5 253/1/5
f 258/1/5 254/1/5 257/1/5
f 259/1/5 256/1/5 255/1/5
f 260/1/5 256/1/5 259/1/5
f 265/1/5 262/1/5 261/1/5
f 266/1/5 262/1/5 265/1/5
f 267/1/5 264/1/5 263/1/5
f 268/1/5 264/1/5 267/1/5
f 273/1/5 270/1/5 269/1/5
f 274/1/5 270/1/5 273/1/5
f 275/1/5 272/1/5 271/1/5
f 276/1/5 272/1/5 275/1/5
f 281/1/5 278/1/5 277/1/5
f 282/1/5 278/1/5 281/1/5
f 283/1/5 280/1/5 279/1/5
f 284/1/5 280/1/5 283/1/5
f 287/1/5 286/1/5 285/1/5
f 288/1/5 286/1/5 287/1/5
f 289/1/6 290/1/6 293/1/6
f 293/1/6 290/1/6 294/1/6
f 291/1/6 292/1/6 295/1/6
f 295/1/6 292/1/6 296/1/6
f 297/1/6 298/1/6 301/1/6
f 301/1/6 298/1/6 302/1/6
f 299/1/6 300/1/6 303/1/6
f 303/1/6 300/1/6 304/1/6
f 305/1/6 306/1/6 309/1/6
f 309/1/6 306/1/6 310/1/6
f 307/1/6 308/1/6 311/1/6
f 311/1/6 308/1/6 312/1/6
f 313/1/6 314/1/6 317/1/6
f 317/1/6 314/1/6 318/1/6
f 315/1/6 316/1/6 319/1/6
f 319/1/6 316/1/6 320/1/6
f 321/1/6 322/1/6 325/1/6
f 325/1/6 322/1/6 326/1/6
f 323/1/6 324/1/6 327/1/6
f 327/1/6 324/1/6 328/1/6
f 329/1/6 330/1/6 333/1/6
f 333/1/6 330/1/6 334/1/6
f 331/1/6 332/1/6 335/1/6
f 335/1/6 332/1/6 336/1/6
f 337/1/6 338/1/6 340/1/6
f 340/1/6 338/1/6 341/1/6
f 339/1/6 340/1/6 343/1/6
f 341/1/6 342/1/6 343/1/6
f 340/1/6 341/1/6 343/1/6
f 343/1/6 342/1/6 344/1/6
f 339/1/6 343/1/6 345/1/6
f 344/1/6 342/1/6 346/1/6
f 339/1/6 345/1/6 347/1/6
f 345/1/6 346/1/6 347/1/6
f 346/1/6 342/1/6 348/1/6
f 347/1/6 346/1/6 348/1/6
